<svg class="rich-terminal" viewBox="0 0 1336 782.0" xmlns="http://www.w3.org/2000/svg">
    <!-- Generated with Rich https://www.textualize.io -->
    <style>

    @font-face {
        font-family: "Fira Code";
        src: local("FiraCode-Regular"),
                url("https://cdnjs.cloudflare.com/ajax/libs/firacode/6.2.0/woff2/FiraCode-Regular.woff2") format("woff2"),
                url("https://cdnjs.cloudflare.com/ajax/libs/firacode/6.2.0/woff/FiraCode-Regular.woff") format("woff");
        font-style: normal;
        font-weight: 400;
    }
    @font-face {
        font-family: "Fira Code";
        src: local("FiraCode-Bold"),
                url("https://cdnjs.cloudflare.com/ajax/libs/firacode/6.2.0/woff2/FiraCode-Bold.woff2") format("woff2"),
                url("https://cdnjs.cloudflare.com/ajax/libs/firacode/6.2.0/woff/FiraCode-Bold.woff") format("woff");
        font-style: bold;
        font-weight: 700;
    }

    .terminal-3554043557-matrix {
        font-family: Fira Code, monospace;
        font-size: 20px;
        line-height: 24.4px;
        font-variant-east-asian: full-width;
    }

    .terminal-3554043557-title {
        font-size: 18px;
        font-weight: bold;
        font-family: arial;
    }

    .terminal-3554043557-r1 { fill: #c5c8c6 }
.terminal-3554043557-r2 { fill: #e0e0e0 }
.terminal-3554043557-r3 { fill: #a0a3a6 }
.terminal-3554043557-r4 { fill: #e0e0e0;font-weight: bold }
.terminal-3554043557-r5 { fill: #242f38 }
.terminal-3554043557-r6 { fill: #98e024 }
.terminal-3554043557-r7 { fill: #f4005f;font-weight: bold }
.terminal-3554043557-r8 { fill: #999999 }
.terminal-3554043557-r9 { fill: #ddedf9;font-weight: bold }
.terminal-3554043557-r10 { fill: #ad691a }
.terminal-3554043557-r11 { fill: #ffa62b;font-weight: bold }
.terminal-3554043557-r12 { fill: #495259 }
    </style>

    <defs>
    <clipPath id="terminal-3554043557-clip-terminal">
      <rect x="0" y="0" width="1316.6" height="731.0" />
    </clipPath>
    <clipPath id="terminal-3554043557-line-0">
    <rect x="0" y="1.5" width="1317.6" height="24.65"/>
            </clipPath>
<clipPath id="terminal-3554043557-line-1">
    <rect x="0" y="25.9" width="1317.6" height="24.65"/>
            </clipPath>
<clipPath id="terminal-3554043557-line-2">
    <rect x="0" y="50.3" width="1317.6" height="24.65"/>
            </clipPath>
<clipPath id="terminal-3554043557-line-3">
    <rect x="0" y="74.7" width="1317.6" height="24.65"/>
            </clipPath>
<clipPath id="terminal-3554043557-line-4">
    <rect x="0" y="99.1" width="1317.6" height="24.65"/>
            </clipPath>
<clipPath id="terminal-3554043557-line-5">
    <rect x="0" y="123.5" width="1317.6" height="24.65"/>
            </clipPath>
<clipPath id="terminal-3554043557-line-6">
    <rect x="0" y="147.9" width="1317.6" height="24.65"/>
            </clipPath>
<clipPath id="terminal-3554043557-line-7">
    <rect x="0" y="172.3" width="1317.6" height="24.65"/>
            </clipPath>
<clipPath id="terminal-3554043557-line-8">
    <rect x="0" y="196.7" width="1317.6" height="24.65"/>
            </clipPath>
<clipPath id="terminal-3554043557-line-9">
    <rect x="0" y="221.1" width="1317.6" height="24.65"/>
            </clipPath>
<clipPath id="terminal-3554043557-line-10">
    <rect x="0" y="245.5" width="1317.6" height="24.65"/>
            </clipPath>
<clipPath id="terminal-3554043557-line-11">
    <rect x="0" y="269.9" width="1317.6" height="24.65"/>
            </clipPath>
<clipPath id="terminal-3554043557-line-12">
    <rect x="0" y="294.3" width="1317.6" height="24.65"/>
            </clipPath>
<clipPath id="terminal-3554043557-line-13">
    <rect x="0" y="318.7" width="1317.6" height="24.65"/>
            </clipPath>
<clipPath id="terminal-3554043557-line-14">
    <rect x="0" y="343.1" width="1317.6" height="24.65"/>
            </clipPath>
<clipPath id="terminal-3554043557-line-15">
    <rect x="0" y="367.5" width="1317.6" height="24.65"/>
            </clipPath>
<clipPath id="terminal-3554043557-line-16">
    <rect x="0" y="391.9" width="1317.6" height="24.65"/>
            </clipPath>
<clipPath id="terminal-3554043557-line-17">
    <rect x="0" y="416.3" width="1317.6" height="24.65"/>
            </clipPath>
<clipPath id="terminal-3554043557-line-18">
    <rect x="0" y="440.7" width="1317.6" height="24.65"/>
            </clipPath>
<clipPath id="terminal-3554043557-line-19">
    <rect x="0" y="465.1" width="1317.6" height="24.65"/>
            </clipPath>
<clipPath id="terminal-3554043557-line-20">
    <rect x="0" y="489.5" width="1317.6" height="24.65"/>
            </clipPath>
<clipPath id="terminal-3554043557-line-21">
    <rect x="0" y="513.9" width="1317.6" height="24.65"/>
            </clipPath>
<clipPath id="terminal-3554043557-line-22">
    <rect x="0" y="538.3" width="1317.6" height="24.65"/>
            </clipPath>
<clipPath id="terminal-3554043557-line-23">
    <rect x="0" y="562.7" width="1317.6" height="24.65"/>
            </clipPath>
<clipPath id="terminal-3554043557-line-24">
    <rect x="0" y="587.1" width="1317.6" height="24.65"/>
            </clipPath>
<clipPath id="terminal-3554043557-line-25">
    <rect x="0" y="611.5" width="1317.6" height="24.65"/>
            </clipPath>
<clipPath id="terminal-3554043557-line-26">
    <rect x="0" y="635.9" width="1317.6" height="24.65"/>
            </clipPath>
<clipPath id="terminal-3554043557-line-27">
    <rect x="0" y="660.3" width="1317.6" height="24.65"/>
            </clipPath>
<clipPath id="terminal-3554043557-line-28">
    <rect x="0" y="684.7" width="1317.6" height="24.65"/>
            </clipPath>
    </defs>

    <rect fill="#292929" stroke="rgba(255,255,255,0.35)" stroke-width="1" x="1" y="1" width="1334" height="780" rx="8"/><text class="terminal-3554043557-title" fill="#c5c8c6" text-anchor="middle" x="667" y="27">Kinescope</text>
            <g transform="translate(26,22)">
            <circle cx="0" cy="0" r="7" fill="#ff5f57"/>
            <circle cx="22" cy="0" r="7" fill="#febc2e"/>
            <circle cx="44" cy="0" r="7" fill="#28c840"/>
            </g>
        
    <g transform="translate(9, 41)" clip-path="url(#terminal-3554043557-clip-terminal)">
    <rect fill="#242f38" x="0" y="1.5" width="12.2" height="24.65" shape-rendering="crispEdges"/><rect fill="#242f38" x="12.2" y="1.5" width="12.2" height="24.65" shape-rendering="crispEdges"/><rect fill="#242f38" x="24.4" y="1.5" width="61" height="24.65" shape-rendering="crispEdges"/><rect fill="#242f38" x="85.4" y="1.5" width="12.2" height="24.65" shape-rendering="crispEdges"/><rect fill="#242f38" x="97.6" y="1.5" width="12.2" height="24.65" shape-rendering="crispEdges"/><rect fill="#242f38" x="109.8" y="1.5" width="12.2" height="24.65" shape-rendering="crispEdges"/><rect fill="#242f38" x="122" y="1.5" width="85.4" height="24.65" shape-rendering="crispEdges"/><rect fill="#242f38" x="207.4" y="1.5" width="36.6" height="24.65" shape-rendering="crispEdges"/><rect fill="#242f38" x="244" y="1.5" width="915" height="24.65" shape-rendering="crispEdges"/><rect fill="#242f38" x="1159" y="1.5" width="24.4" height="24.65" shape-rendering="crispEdges"/><rect fill="#242f38" x="1183.4" y="1.5" width="12.2" height="24.65" shape-rendering="crispEdges"/><rect fill="#242f38" x="1195.6" y="1.5" width="12.2" height="24.65" shape-rendering="crispEdges"/><rect fill="#242f38" x="1207.8" y="1.5" width="0" height="24.65" shape-rendering="crispEdges"/><rect fill="#242f38" x="1207.8" y="1.5" width="97.6" height="24.65" shape-rendering="crispEdges"/><rect fill="#242f38" x="1305.4" y="1.5" width="12.2" height="24.65" shape-rendering="crispEdges"/><rect fill="#2d3740" x="0" y="25.9" width="61" height="24.65" shape-rendering="crispEdges"/><rect fill="#2d3740" x="61" y="25.9" width="73.2" height="24.65" shape-rendering="crispEdges"/><rect fill="#2d3740" x="134.2" y="25.9" width="122" height="24.65" shape-rendering="crispEdges"/><rect fill="#2d3740" x="256.2" y="25.9" width="73.2" height="24.65" shape-rendering="crispEdges"/><rect fill="#2d3740" x="329.4" y="25.9" width="146.4" height="24.65" shape-rendering="crispEdges"/><rect fill="#272727" x="475.8" y="25.9" width="12.2" height="24.65" shape-rendering="crispEdges"/><rect fill="#121212" x="488" y="25.9" width="12.2" height="24.65" shape-rendering="crispEdges"/><rect fill="#121212" x="500.2" y="25.9" width="36.6" height="24.65" shape-rendering="crispEdges"/><rect fill="#121212" x="536.8" y="25.9" width="61" height="24.65" shape-rendering="crispEdges"/><rect fill="#121212" x="597.8" y="25.9" width="97.6" height="24.65" shape-rendering="crispEdges"/><rect fill="#121212" x="695.4" y="25.9" width="610" height="24.65" shape-rendering="crispEdges"/><rect fill="#121212" x="1305.4" y="25.9" width="12.2" height="24.65" shape-rendering="crispEdges"/><rect fill="#1c1c1c" x="0" y="50.3" width="61" height="24.65" shape-rendering="crispEdges"/><rect fill="#1c1c1c" x="61" y="50.3" width="12.2" height="24.65" shape-rendering="crispEdges"/><rect fill="#1c1c1c" x="73.2" y="50.3" width="48.8" height="24.65" shape-rendering="crispEdges"/><rect fill="#1c1c1c" x="122" y="50.3" width="12.2" height="24.65" shape-rendering="crispEdges"/><rect fill="#1c1c1c" x="134.2" y="50.3" width="122" height="24.65" shape-rendering="crispEdges"/><rect fill="#1c1c1c" x="256.2" y="50.3" width="12.2" height="24.65" shape-rendering="crispEdges"/><rect fill="#1c1c1c" x="268.4" y="50.3" width="48.8" height="24.65" shape-rendering="crispEdges"/><rect fill="#1c1c1c" x="317.2" y="50.3" width="12.2" height="24.65" shape-rendering="crispEdges"/><rect fill="#1c1c1c" x="329.4" y="50.3" width="146.4" height="24.65" shape-rendering="crispEdges"/><rect fill="#272727" x="475.8" y="50.3" width="12.2" height="24.65" shape-rendering="crispEdges"/><rect fill="#121212" x="488" y="50.3" width="12.2" height="24.65" shape-rendering="crispEdges"/><rect fill="#121212" x="500.2" y="50.3" width="97.6" height="24.65" shape-rendering="crispEdges"/><rect fill="#121212" x="597.8" y="50.3" width="707.6" height="24.65" shape-rendering="crispEdges"/><rect fill="#121212" x="1305.4" y="50.3" width="12.2" height="24.65" shape-rendering="crispEdges"/><rect fill="#0178d4" x="0" y="74.7" width="61" height="24.65" shape-rendering="crispEdges"/><rect fill="#0178d4" x="61" y="74.7" width="73.2" height="24.65" shape-rendering="crispEdges"/><rect fill="#0178d4" x="134.2" y="74.7" width="122" height="24.65" shape-rendering="crispEdges"/><rect fill="#0178d4" x="256.2" y="74.7" width="73.2" height="24.65" shape-rendering="crispEdges"/><rect fill="#0178d4" x="329.4" y="74.7" width="146.4" height="24.65" shape-rendering="crispEdges"/><rect fill="#272727" x="475.8" y="74.7" width="12.2" height="24.65" shape-rendering="crispEdges"/><rect fill="#121212" x="488" y="74.7" width="12.2" height="24.65" shape-rendering="crispEdges"/><rect fill="#121212" x="500.2" y="74.7" width="0" height="24.65" shape-rendering="crispEdges"/><rect fill="#121212" x="500.2" y="74.7" width="805.2" height="24.65" shape-rendering="crispEdges"/><rect fill="#121212" x="1305.4" y="74.7" width="12.2" height="24.65" shape-rendering="crispEdges"/><rect fill="#121212" x="0" y="99.1" width="488" height="24.65" shape-rendering="crispEdges"/><rect fill="#121212" x="488" y="99.1" width="12.2" height="24.65" shape-rendering="crispEdges"/><rect fill="#121212" x="500.2" y="99.1" width="61" height="24.65" shape-rendering="crispEdges"/><rect fill="#121212" x="561.2" y="99.1" width="744.2" height="24.65" shape-rendering="crispEdges"/><rect fill="#121212" x="1305.4" y="99.1" width="12.2" height="24.65" shape-rendering="crispEdges"/><rect fill="#121212" x="0" y="123.5" width="488" height="24.65" shape-rendering="crispEdges"/><rect fill="#121212" x="488" y="123.5" width="12.2" height="24.65" shape-rendering="crispEdges"/><rect fill="#121212" x="500.2" y="123.5" width="12.2" height="24.65" shape-rendering="crispEdges"/><rect fill="#121212" x="512.4" y="123.5" width="793" height="24.65" shape-rendering="crispEdges"/><rect fill="#121212" x="1305.4" y="123.5" width="12.2" height="24.65" shape-rendering="crispEdges"/><rect fill="#121212" x="0" y="147.9" width="488" height="24.65" shape-rendering="crispEdges"/><rect fill="#121212" x="488" y="147.9" width="12.2" height="24.65" shape-rendering="crispEdges"/><rect fill="#121212" x="500.2" y="147.9" width="134.2" height="24.65" shape-rendering="crispEdges"/><rect fill="#121212" x="634.4" y="147.9" width="671" height="24.65" shape-rendering="crispEdges"/><rect fill="#121212" x="1305.4" y="147.9" width="12.2" height="24.65" shape-rendering="crispEdges"/><rect fill="#121212" x="0" y="172.3" width="488" height="24.65" shape-rendering="crispEdges"/><rect fill="#121212" x="488" y="172.3" width="12.2" height="24.65" shape-rendering="crispEdges"/><rect fill="#121212" x="500.2" y="172.3" width="73.2" height="24.65" shape-rendering="crispEdges"/><rect fill="#121212" x="573.4" y="172.3" width="732" height="24.65" shape-rendering="crispEdges"/><rect fill="#121212" x="1305.4" y="172.3" width="12.2" height="24.65" shape-rendering="crispEdges"/><rect fill="#121212" x="0" y="196.7" width="488" height="24.65" shape-rendering="crispEdges"/><rect fill="#121212" x="488" y="196.7" width="12.2" height="24.65" shape-rendering="crispEdges"/><rect fill="#121212" x="500.2" y="196.7" width="48.8" height="24.65" shape-rendering="crispEdges"/><rect fill="#121212" x="549" y="196.7" width="756.4" height="24.65" shape-rendering="crispEdges"/><rect fill="#121212" x="1305.4" y="196.7" width="12.2" height="24.65" shape-rendering="crispEdges"/><rect fill="#121212" x="0" y="221.1" width="488" height="24.65" shape-rendering="crispEdges"/><rect fill="#121212" x="488" y="221.1" width="12.2" height="24.65" shape-rendering="crispEdges"/><rect fill="#121212" x="500.2" y="221.1" width="183" height="24.65" shape-rendering="crispEdges"/><rect fill="#121212" x="683.2" y="221.1" width="622.2" height="24.65" shape-rendering="crispEdges"/><rect fill="#121212" x="1305.4" y="221.1" width="12.2" height="24.65" shape-rendering="crispEdges"/><rect fill="#121212" x="0" y="245.5" width="488" height="24.65" shape-rendering="crispEdges"/><rect fill="#121212" x="488" y="245.5" width="12.2" height="24.65" shape-rendering="crispEdges"/><rect fill="#121212" x="500.2" y="245.5" width="244" height="24.65" shape-rendering="crispEdges"/><rect fill="#121212" x="744.2" y="245.5" width="561.2" height="24.65" shape-rendering="crispEdges"/><rect fill="#121212" x="1305.4" y="245.5" width="12.2" height="24.65" shape-rendering="crispEdges"/><rect fill="#121212" x="0" y="269.9" width="488" height="24.65" shape-rendering="crispEdges"/><rect fill="#121212" x="488" y="269.9" width="12.2" height="24.65" shape-rendering="crispEdges"/><rect fill="#121212" x="500.2" y="269.9" width="12.2" height="24.65" shape-rendering="crispEdges"/><rect fill="#121212" x="512.4" y="269.9" width="793" height="24.65" shape-rendering="crispEdges"/><rect fill="#121212" x="1305.4" y="269.9" width="12.2" height="24.65" shape-rendering="crispEdges"/><rect fill="#121212" x="0" y="294.3" width="488" height="24.65" shape-rendering="crispEdges"/><rect fill="#121212" x="488" y="294.3" width="12.2" height="24.65" shape-rendering="crispEdges"/><rect fill="#121212" x="500.2" y="294.3" width="0" height="24.65" shape-rendering="crispEdges"/><rect fill="#121212" x="500.2" y="294.3" width="805.2" height="24.65" shape-rendering="crispEdges"/><rect fill="#121212" x="1305.4" y="294.3" width="12.2" height="24.65" shape-rendering="crispEdges"/><rect fill="#121212" x="0" y="318.7" width="488" height="24.65" shape-rendering="crispEdges"/><rect fill="#121212" x="488" y="318.7" width="12.2" height="24.65" shape-rendering="crispEdges"/><rect fill="#121212" x="500.2" y="318.7" width="73.2" height="24.65" shape-rendering="crispEdges"/><rect fill="#121212" x="573.4" y="318.7" width="732" height="24.65" shape-rendering="crispEdges"/><rect fill="#121212" x="1305.4" y="318.7" width="12.2" height="24.65" shape-rendering="crispEdges"/><rect fill="#121212" x="0" y="343.1" width="488" height="24.65" shape-rendering="crispEdges"/><rect fill="#121212" x="488" y="343.1" width="12.2" height="24.65" shape-rendering="crispEdges"/><rect fill="#121212" x="500.2" y="343.1" width="73.2" height="24.65" shape-rendering="crispEdges"/><rect fill="#121212" x="573.4" y="343.1" width="732" height="24.65" shape-rendering="crispEdges"/><rect fill="#121212" x="1305.4" y="343.1" width="12.2" height="24.65" shape-rendering="crispEdges"/><rect fill="#121212" x="0" y="367.5" width="488" height="24.65" shape-rendering="crispEdges"/><rect fill="#121212" x="488" y="367.5" width="12.2" height="24.65" shape-rendering="crispEdges"/><rect fill="#121212" x="500.2" y="367.5" width="0" height="24.65" shape-rendering="crispEdges"/><rect fill="#121212" x="500.2" y="367.5" width="805.2" height="24.65" shape-rendering="crispEdges"/><rect fill="#121212" x="1305.4" y="367.5" width="12.2" height="24.65" shape-rendering="crispEdges"/><rect fill="#121212" x="0" y="391.9" width="488" height="24.65" shape-rendering="crispEdges"/><rect fill="#121212" x="488" y="391.9" width="12.2" height="24.65" shape-rendering="crispEdges"/><rect fill="#121212" x="500.2" y="391.9" width="0" height="24.65" shape-rendering="crispEdges"/><rect fill="#121212" x="500.2" y="391.9" width="805.2" height="24.65" shape-rendering="crispEdges"/><rect fill="#121212" x="1305.4" y="391.9" width="12.2" height="24.65" shape-rendering="crispEdges"/><rect fill="#121212" x="0" y="416.3" width="488" height="24.65" shape-rendering="crispEdges"/><rect fill="#121212" x="488" y="416.3" width="829.6" height="24.65" shape-rendering="crispEdges"/><rect fill="#121212" x="0" y="440.7" width="488" height="24.65" shape-rendering="crispEdges"/><rect fill="#121212" x="488" y="440.7" width="829.6" height="24.65" shape-rendering="crispEdges"/><rect fill="#121212" x="0" y="465.1" width="488" height="24.65" shape-rendering="crispEdges"/><rect fill="#121212" x="488" y="465.1" width="12.2" height="24.65" shape-rendering="crispEdges"/><rect fill="#121212" x="500.2" y="465.1" width="402.6" height="24.65" shape-rendering="crispEdges"/><rect fill="#121212" x="902.8" y="465.1" width="402.6" height="24.65" shape-rendering="crispEdges"/><rect fill="#121212" x="1305.4" y="465.1" width="12.2" height="24.65" shape-rendering="crispEdges"/><rect fill="#121212" x="0" y="489.5" width="488" height="24.65" shape-rendering="crispEdges"/><rect fill="#121212" x="488" y="489.5" width="12.2" height="24.65" shape-rendering="crispEdges"/><rect fill="#121212" x="500.2" y="489.5" width="122" height="24.65" shape-rendering="crispEdges"/><rect fill="#121212" x="622.2" y="489.5" width="97.6" height="24.65" shape-rendering="crispEdges"/><rect fill="#121212" x="719.8" y="489.5" width="585.6" height="24.65" shape-rendering="crispEdges"/><rect fill="#121212" x="1305.4" y="489.5" width="12.2" height="24.65" shape-rendering="crispEdges"/><rect fill="#121212" x="0" y="513.9" width="488" height="24.65" shape-rendering="crispEdges"/><rect fill="#121212" x="488" y="513.9" width="12.2" height="24.65" shape-rendering="crispEdges"/><rect fill="#121212" x="500.2" y="513.9" width="0" height="24.65" shape-rendering="crispEdges"/><rect fill="#121212" x="500.2" y="513.9" width="805.2" height="24.65" shape-rendering="crispEdges"/><rect fill="#121212" x="1305.4" y="513.9" width="12.2" height="24.65" shape-rendering="crispEdges"/><rect fill="#121212" x="0" y="538.3" width="488" height="24.65" shape-rendering="crispEdges"/><rect fill="#121212" x="488" y="538.3" width="829.6" height="24.65" shape-rendering="crispEdges"/><rect fill="#121212" x="0" y="562.7" width="488" height="24.65" shape-rendering="crispEdges"/><rect fill="#121212" x="488" y="562.7" width="829.6" height="24.65" shape-rendering="crispEdges"/><rect fill="#121212" x="0" y="587.1" width="488" height="24.65" shape-rendering="crispEdges"/><rect fill="#121212" x="488" y="587.1" width="829.6" height="24.65" shape-rendering="crispEdges"/><rect fill="#121212" x="0" y="611.5" width="488" height="24.65" shape-rendering="crispEdges"/><rect fill="#121212" x="488" y="611.5" width="829.6" height="24.65" shape-rendering="crispEdges"/><rect fill="#121212" x="0" y="635.9" width="488" height="24.65" shape-rendering="crispEdges"/><rect fill="#121212" x="488" y="635.9" width="829.6" height="24.65" shape-rendering="crispEdges"/><rect fill="#121212" x="0" y="660.3" width="488" height="24.65" shape-rendering="crispEdges"/><rect fill="#121212" x="488" y="660.3" width="829.6" height="24.65" shape-rendering="crispEdges"/><rect fill="#121212" x="0" y="684.7" width="488" height="24.65" shape-rendering="crispEdges"/><rect fill="#121212" x="488" y="684.7" width="829.6" height="24.65" shape-rendering="crispEdges"/><rect fill="#242f38" x="0" y="709.1" width="36.6" height="24.65" shape-rendering="crispEdges"/><rect fill="#242f38" x="36.6" y="709.1" width="61" height="24.65" shape-rendering="crispEdges"/><rect fill="#242f38" x="97.6" y="709.1" width="36.6" height="24.65" shape-rendering="crispEdges"/><rect fill="#242f38" x="134.2" y="709.1" width="61" height="24.65" shape-rendering="crispEdges"/><rect fill="#242f38" x="195.2" y="709.1" width="36.6" height="24.65" shape-rendering="crispEdges"/><rect fill="#242f38" x="231.8" y="709.1" width="85.4" height="24.65" shape-rendering="crispEdges"/><rect fill="#242f38" x="317.2" y="709.1" width="854" height="24.65" shape-rendering="crispEdges"/><rect fill="#242f38" x="1171.2" y="709.1" width="12.2" height="24.65" shape-rendering="crispEdges"/><rect fill="#242f38" x="1183.4" y="709.1" width="24.4" height="24.65" shape-rendering="crispEdges"/><rect fill="#242f38" x="1207.8" y="709.1" width="97.6" height="24.65" shape-rendering="crispEdges"/><rect fill="#242f38" x="1305.4" y="709.1" width="12.2" height="24.65" shape-rendering="crispEdges"/>
    <g class="terminal-3554043557-matrix">
    <text class="terminal-3554043557-r2" x="12.2" y="20" textLength="12.2" clip-path="url(#terminal-3554043557-line-0)">⭘</text><text class="terminal-3554043557-r2" x="122" y="20" textLength="85.4" clip-path="url(#terminal-3554043557-line-0)">Kinescope</text><text class="terminal-3554043557-r3" x="207.4" y="20" textLength="36.6" clip-path="url(#terminal-3554043557-line-0)">&#160;—&#160;</text><text class="terminal-3554043557-r3" x="244" y="20" textLength="915" clip-path="url(#terminal-3554043557-line-0)">weather#fork@0&#160;&#160;1782718039954-e890&#160;&#160;(complete)&#160;&#160;⑂&#160;from&#160;1782718039365-effb@0</text><text class="terminal-3554043557-r1" x="1317.6" y="20" textLength="12.2" clip-path="url(#terminal-3554043557-line-0)">
</text><text class="terminal-3554043557-r4" x="0" y="44.4" textLength="61" clip-path="url(#terminal-3554043557-line-1)">&#160;seq&#160;</text><text class="terminal-3554043557-r4" x="61" y="44.4" textLength="73.2" clip-path="url(#terminal-3554043557-line-1)">&#160;kind&#160;</text><text class="terminal-3554043557-r4" x="134.2" y="44.4" textLength="122" clip-path="url(#terminal-3554043557-line-1)">&#160;name&#160;&#160;&#160;&#160;&#160;</text><text class="terminal-3554043557-r5" x="475.8" y="44.4" textLength="12.2" clip-path="url(#terminal-3554043557-line-1)">│</text><text class="terminal-3554043557-r4" x="500.2" y="44.4" textLength="36.6" clip-path="url(#terminal-3554043557-line-1)">#1&#160;</text><text class="terminal-3554043557-r6" x="536.8" y="44.4" textLength="61" clip-path="url(#terminal-3554043557-line-1)">tool&#160;</text><text class="terminal-3554043557-r4" x="597.8" y="44.4" textLength="97.6" clip-path="url(#terminal-3554043557-line-1)">classify</text><text class="terminal-3554043557-r1" x="1317.6" y="44.4" textLength="12.2" clip-path="url(#terminal-3554043557-line-1)">
</text><text class="terminal-3554043557-r2" x="0" y="68.8" textLength="61" clip-path="url(#terminal-3554043557-line-2)">&#160;0&#160;&#160;&#160;</text><text class="terminal-3554043557-r6" x="73.2" y="68.8" textLength="48.8" clip-path="url(#terminal-3554043557-line-2)">tool</text><text class="terminal-3554043557-r2" x="134.2" y="68.8" textLength="122" clip-path="url(#terminal-3554043557-line-2)">&#160;sensor&#160;&#160;&#160;</text><text class="terminal-3554043557-r7" x="268.4" y="68.8" textLength="48.8" clip-path="url(#terminal-3554043557-line-2)">fork</text><text class="terminal-3554043557-r5" x="475.8" y="68.8" textLength="12.2" clip-path="url(#terminal-3554043557-line-2)">│</text><text class="terminal-3554043557-r8" x="500.2" y="68.8" textLength="97.6" clip-path="url(#terminal-3554043557-line-2)">ok&#160;·&#160;1ms</text><text class="terminal-3554043557-r1" x="1317.6" y="68.8" textLength="12.2" clip-path="url(#terminal-3554043557-line-2)">
</text><text class="terminal-3554043557-r9" x="0" y="93.2" textLength="61" clip-path="url(#terminal-3554043557-line-3)">&#160;1&#160;&#160;&#160;</text><text class="terminal-3554043557-r9" x="61" y="93.2" textLength="73.2" clip-path="url(#terminal-3554043557-line-3)">&#160;tool&#160;</text><text class="terminal-3554043557-r9" x="134.2" y="93.2" textLength="122" clip-path="url(#terminal-3554043557-line-3)">&#160;classify&#160;</text><text class="terminal-3554043557-r5" x="475.8" y="93.2" textLength="12.2" clip-path="url(#terminal-3554043557-line-3)">│</text><text class="terminal-3554043557-r1" x="1317.6" y="93.2" textLength="12.2" clip-path="url(#terminal-3554043557-line-3)">
</text><text class="terminal-3554043557-r4" x="500.2" y="117.6" textLength="61" clip-path="url(#terminal-3554043557-line-4)">input</text><text class="terminal-3554043557-r1" x="1317.6" y="117.6" textLength="12.2" clip-path="url(#terminal-3554043557-line-4)">
</text><text class="terminal-3554043557-r2" x="500.2" y="142" textLength="12.2" clip-path="url(#terminal-3554043557-line-5)">{</text><text class="terminal-3554043557-r1" x="1317.6" y="142" textLength="12.2" clip-path="url(#terminal-3554043557-line-5)">
</text><text class="terminal-3554043557-r2" x="500.2" y="166.4" textLength="134.2" clip-path="url(#terminal-3554043557-line-6)">&#160;&#160;&quot;args&quot;:&#160;[</text><text class="terminal-3554043557-r1" x="1317.6" y="166.4" textLength="12.2" clip-path="url(#terminal-3554043557-line-6)">
</text><text class="terminal-3554043557-r2" x="500.2" y="190.8" textLength="73.2" clip-path="url(#terminal-3554043557-line-7)">&#160;&#160;&#160;&#160;72</text><text class="terminal-3554043557-r1" x="1317.6" y="190.8" textLength="12.2" clip-path="url(#terminal-3554043557-line-7)">
</text><text class="terminal-3554043557-r2" x="500.2" y="215.2" textLength="48.8" clip-path="url(#terminal-3554043557-line-8)">&#160;&#160;],</text><text class="terminal-3554043557-r1" x="1317.6" y="215.2" textLength="12.2" clip-path="url(#terminal-3554043557-line-8)">
</text><text class="terminal-3554043557-r2" x="500.2" y="239.6" textLength="183" clip-path="url(#terminal-3554043557-line-9)">&#160;&#160;&quot;kwargs&quot;:&#160;{},</text><text class="terminal-3554043557-r1" x="1317.6" y="239.6" textLength="12.2" clip-path="url(#terminal-3554043557-line-9)">
</text><text class="terminal-3554043557-r2" x="500.2" y="264" textLength="244" clip-path="url(#terminal-3554043557-line-10)">&#160;&#160;&quot;name&quot;:&#160;&quot;classify&quot;</text><text class="terminal-3554043557-r1" x="1317.6" y="264" textLength="12.2" clip-path="url(#terminal-3554043557-line-10)">
</text><text class="terminal-3554043557-r2" x="500.2" y="288.4" textLength="12.2" clip-path="url(#terminal-3554043557-line-11)">}</text><text class="terminal-3554043557-r1" x="1317.6" y="288.4" textLength="12.2" clip-path="url(#terminal-3554043557-line-11)">
</text><text class="terminal-3554043557-r1" x="1317.6" y="312.8" textLength="12.2" clip-path="url(#terminal-3554043557-line-12)">
</text><text class="terminal-3554043557-r4" x="500.2" y="337.2" textLength="73.2" clip-path="url(#terminal-3554043557-line-13)">output</text><text class="terminal-3554043557-r1" x="1317.6" y="337.2" textLength="12.2" clip-path="url(#terminal-3554043557-line-13)">
</text><text class="terminal-3554043557-r2" x="500.2" y="361.6" textLength="73.2" clip-path="url(#terminal-3554043557-line-14)">&quot;warm&quot;</text><text class="terminal-3554043557-r1" x="1317.6" y="361.6" textLength="12.2" clip-path="url(#terminal-3554043557-line-14)">
</text><text class="terminal-3554043557-r1" x="1317.6" y="386" textLength="12.2" clip-path="url(#terminal-3554043557-line-15)">
</text><text class="terminal-3554043557-r1" x="1317.6" y="410.4" textLength="12.2" clip-path="url(#terminal-3554043557-line-16)">
</text><text class="terminal-3554043557-r1" x="1317.6" y="434.8" textLength="12.2" clip-path="url(#terminal-3554043557-line-17)">
</text><text class="terminal-3554043557-r5" x="488" y="459.2" textLength="829.6" clip-path="url(#terminal-3554043557-line-18)">────────────────────────────────────────────────────────────────────</text><text class="terminal-3554043557-r1" x="1317.6" y="459.2" textLength="12.2" clip-path="url(#terminal-3554043557-line-18)">
</text><text class="terminal-3554043557-r8" x="500.2" y="483.6" textLength="402.6" clip-path="url(#terminal-3554043557-line-19)">state&#160;diff&#160;&#160;(sensed&#160;→&#160;classified)</text><text class="terminal-3554043557-r1" x="1317.6" y="483.6" textLength="12.2" clip-path="url(#terminal-3554043557-line-19)">
</text><text class="terminal-3554043557-r10" x="500.2" y="508" textLength="122" clip-path="url(#terminal-3554043557-line-20)">~&#160;/verdict</text><text class="terminal-3554043557-r8" x="622.2" y="508" textLength="97.6" clip-path="url(#terminal-3554043557-line-20)">&#160;&#160;&quot;warm&quot;</text><text class="terminal-3554043557-r1" x="1317.6" y="508" textLength="12.2" clip-path="url(#terminal-3554043557-line-20)">
</text><text class="terminal-3554043557-r1" x="1317.6" y="532.4" textLength="12.2" clip-path="url(#terminal-3554043557-line-21)">
</text><text class="terminal-3554043557-r1" x="1317.6" y="556.8" textLength="12.2" clip-path="url(#terminal-3554043557-line-22)">
</text><text class="terminal-3554043557-r1" x="1317.6" y="581.2" textLength="12.2" clip-path="url(#terminal-3554043557-line-23)">
</text><text class="terminal-3554043557-r1" x="1317.6" y="605.6" textLength="12.2" clip-path="url(#terminal-3554043557-line-24)">
</text><text class="terminal-3554043557-r1" x="1317.6" y="630" textLength="12.2" clip-path="url(#terminal-3554043557-line-25)">
</text><text class="terminal-3554043557-r1" x="1317.6" y="654.4" textLength="12.2" clip-path="url(#terminal-3554043557-line-26)">
</text><text class="terminal-3554043557-r1" x="1317.6" y="678.8" textLength="12.2" clip-path="url(#terminal-3554043557-line-27)">
</text><text class="terminal-3554043557-r1" x="1317.6" y="703.2" textLength="12.2" clip-path="url(#terminal-3554043557-line-28)">
</text><text class="terminal-3554043557-r11" x="0" y="727.6" textLength="36.6" clip-path="url(#terminal-3554043557-line-29)">&#160;q&#160;</text><text class="terminal-3554043557-r2" x="36.6" y="727.6" textLength="61" clip-path="url(#terminal-3554043557-line-29)">quit&#160;</text><text class="terminal-3554043557-r11" x="97.6" y="727.6" textLength="36.6" clip-path="url(#terminal-3554043557-line-29)">&#160;f&#160;</text><text class="terminal-3554043557-r2" x="134.2" y="727.6" textLength="61" clip-path="url(#terminal-3554043557-line-29)">fork&#160;</text><text class="terminal-3554043557-r11" x="195.2" y="727.6" textLength="36.6" clip-path="url(#terminal-3554043557-line-29)">&#160;r&#160;</text><text class="terminal-3554043557-r2" x="231.8" y="727.6" textLength="85.4" clip-path="url(#terminal-3554043557-line-29)">reload&#160;</text><text class="terminal-3554043557-r12" x="1171.2" y="727.6" textLength="12.2" clip-path="url(#terminal-3554043557-line-29)">▏</text><text class="terminal-3554043557-r11" x="1183.4" y="727.6" textLength="24.4" clip-path="url(#terminal-3554043557-line-29)">^p</text><text class="terminal-3554043557-r2" x="1207.8" y="727.6" textLength="97.6" clip-path="url(#terminal-3554043557-line-29)">&#160;palette</text>
    </g>
    </g>
</svg>
